<?xml version="1.0" standalone="no"?>
<!DOCTYPE svg PUBLIC "-//W3C//DTD SVG 20010904//EN"
 "http://www.w3.org/TR/2001/REC-SVG-20010904/DTD/svg10.dtd">
<svg version="1.0" xmlns="http://www.w3.org/2000/svg"
 width="512.000000pt" height="512.000000pt" viewBox="0 0 512.000000 512.000000"
 preserveAspectRatio="xMidYMid meet">
<metadata>
Created by potrace 1.16, written by Peter Selinger 2001-2019
</metadata>
<g transform="translate(0.000000,512.000000) scale(0.100000,-0.100000)"
fill="#000000" stroke="none">
<path d="M2420 3900 c-549 -68 -1012 -440 -1188 -955 -125 -366 -95 -774 80
-1118 243 -474 735 -777 1265 -777 451 0 873 207 1143 560 275 361 363 834
235 1272 -149 514 -589 911 -1113 1003 -109 20 -323 27 -422 15z m313 -240
c603 -87 1038 -582 1038 -1180 0 -588 -415 -1073 -1005 -1176 -120 -21 -326
-14 -446 16 -233 57 -407 155 -576 324 -231 232 -347 512 -346 836 0 243 64
455 196 654 249 374 711 587 1139 526z"/>
<path d="M3055 2951 c-16 -10 -176 -166 -355 -345 l-324 -325 -131 128 c-136
134 -162 150 -224 136 -35 -7 -79 -49 -87 -82 -4 -13 -3 -40 1 -61 6 -31 36
-66 194 -224 l187 -188 54 0 54 0 394 393 c216 215 400 404 408 419 18 35 18
62 -2 104 -29 62 -109 83 -169 45z"/>
</g>
</svg>
